HIERARCHY
ROOT Hips
{
    OFFSET 0.000000 0.000000 0.000000
    CHANNELS 6 Xposition Yposition Zposition Zrotation Yrotation Xrotation
    JOINT Chest
    {
        OFFSET 0.000000 1.634758 -0.000000
        CHANNELS 3 Zrotation Yrotation Xrotation
        JOINT Chest2
        {
            OFFSET 0.000000 2.197341 0.000000
            CHANNELS 3 Zrotation Yrotation Xrotation
            JOINT Neck
            {
                OFFSET 0.000000 0.961544 0.000000
                CHANNELS 3 Zrotation Yrotation Xrotation
                JOINT Head
                {
                    OFFSET 0.000000 0.632542 -0.032565
                    CHANNELS 3 Zrotation Yrotation Xrotation
                    End Site
                    {
                        OFFSET -0.000001 0.439502 2.922845
                    }
                }
            }
            JOINT LeftCollar
            {
                OFFSET 0.167536 0.778237 -0.168280
                CHANNELS 3 Zrotation Yrotation Xrotation
                JOINT LeftShoulder
                {
                    OFFSET 0.831514 -0.002900 0.006458
                    CHANNELS 3 Zrotation Yrotation Xrotation
                    JOINT LeftElbow
                    {
                        OFFSET 2.272872 -0.026639 0.059314
                        CHANNELS 3 Zrotation Yrotation Xrotation
                        JOINT LeftWrist
                        {
                            OFFSET 2.081982 -0.024402 0.054333
                            CHANNELS 3 Zrotation Yrotation Xrotation
                            JOINT LeftHandThumb1
                            {
                                OFFSET 0.218903 -0.128645 0.283837
                                CHANNELS 3 Zrotation Yrotation Xrotation
                                JOINT LeftHandThumb2
                                {
                                    OFFSET 0.137157 -0.025101 0.077902
                                    CHANNELS 3 Zrotation Yrotation Xrotation
                                    JOINT LeftHandThumb3
                                    {
                                        OFFSET 0.165861 -0.067014 0.039226
                                        CHANNELS 3 Zrotation Yrotation Xrotation
                                        End Site
                                        {
                                            OFFSET 0.241157 -0.045065 0.107930
                                        }
                                    }
                                }
                            }
                            JOINT LeftHandFore1
                            {
                                OFFSET 0.767340 -0.016076 0.196678
                                CHANNELS 3 Zrotation Yrotation Xrotation
                                JOINT LeftHandFore2
                                {
                                    OFFSET 0.207679 -0.061002 0.011988
                                    CHANNELS 3 Zrotation Yrotation Xrotation
                                    JOINT LeftHandFore3
                                    {
                                        OFFSET 0.113929 -0.061007 0.007824
                                        CHANNELS 3 Zrotation Yrotation Xrotation
                                        End Site
                                        {
                                            OFFSET 0.154658 -0.115670 0.008243
                                        }
                                    }
                                }
                            }
                            JOINT LeftHandMiddle1
                            {
                                OFFSET 0.709887 -0.008320 0.018526
                                CHANNELS 3 Zrotation Yrotation Xrotation
                                JOINT LeftHandMiddle2
                                {
                                    OFFSET 0.234599 -0.070490 0.007649
                                    CHANNELS 3 Zrotation Yrotation Xrotation
                                    JOINT LeftHandMiddle3
                                    {
                                        OFFSET 0.130725 -0.065323 0.005208
                                        CHANNELS 3 Zrotation Yrotation Xrotation
                                        End Site
                                        {
                                            OFFSET 0.186384 -0.144204 0.009817
                                        }
                                    }
                                }
                            }
                            JOINT LeftHandRing1
                            {
                                OFFSET 0.743817 -0.005823 -0.153668
                                CHANNELS 3 Zrotation Yrotation Xrotation
                                JOINT LeftHandRing2
                                {
                                    OFFSET 0.335406 -0.110247 -0.009039
                                    CHANNELS 3 Zrotation Yrotation Xrotation
                                    JOINT LeftHandRing3
                                    {
                                        OFFSET 0.118172 -0.068093 0.002040
                                        CHANNELS 3 Zrotation Yrotation Xrotation
                                        End Site
                                        {
                                            OFFSET 0.087533 -0.082180 0.002054
                                        }
                                    }
                                }
                            }
                            JOINT LeftHandLittle1
                            {
                                OFFSET 0.689408 -0.053302 -0.308304
                                CHANNELS 3 Zrotation Yrotation Xrotation
                                JOINT LeftHandLittle2
                                {
                                    OFFSET 0.187288 -0.051249 -0.018728
                                    CHANNELS 3 Zrotation Yrotation Xrotation
                                    JOINT LeftHandLittle3
                                    {
                                        OFFSET 0.101298 -0.063954 -0.012034
                                        CHANNELS 3 Zrotation Yrotation Xrotation
                                        End Site
                                        {
                                            OFFSET 0.158504 -0.105051 -0.011381
                                        }
                                    }
                                }
                            }
                        }
                    }
                }
            }
            JOINT RightCollar
            {
                OFFSET -0.167536 0.778237 -0.168280
                CHANNELS 3 Zrotation Yrotation Xrotation
                JOINT RightShoulder
                {
                    OFFSET -0.831514 -0.002900 0.006457
                    CHANNELS 3 Zrotation Yrotation Xrotation
                    JOINT RightElbow
                    {
                        OFFSET -2.272872 -0.026639 0.059313
                        CHANNELS 3 Zrotation Yrotation Xrotation
                        JOINT RightWrist
                        {
                            OFFSET -2.081982 -0.024402 0.054331
                            CHANNELS 3 Zrotation Yrotation Xrotation
                            JOINT RightHandThumb1
                            {
                                OFFSET -0.218911 -0.128571 0.283837
                                CHANNELS 3 Zrotation Yrotation Xrotation
                                JOINT RightHandThumb2
                                {
                                    OFFSET -0.137157 -0.025101 0.077902
                                    CHANNELS 3 Zrotation Yrotation Xrotation
                                    JOINT RightHandThumb3
                                    {
                                        OFFSET -0.165861 -0.067014 0.039226
                                        CHANNELS 3 Zrotation Yrotation Xrotation
                                        End Site
                                        {
                                            OFFSET -0.229436 -0.065997 0.121819
                                        }
                                    }
                                }
                            }
                            JOINT RightHandFore1
                            {
                                OFFSET -0.767344 -0.015991 0.196679
                                CHANNELS 3 Zrotation Yrotation Xrotation
                                JOINT RightHandFore2
                                {
                                    OFFSET -0.215182 -0.023988 0.010864
                                    CHANNELS 3 Zrotation Yrotation Xrotation
                                    JOINT RightHandFore3
                                    {
                                        OFFSET -0.114095 -0.061027 0.004509
                                        CHANNELS 3 Zrotation Yrotation Xrotation
                                        End Site
                                        {
                                            OFFSET -0.132268 -0.140798 0.006924
                                        }
                                    }
                                }
                            }
                            JOINT RightHandMiddle1
                            {
                                OFFSET -0.709887 -0.008302 0.018525
                                CHANNELS 3 Zrotation Yrotation Xrotation
                                JOINT RightHandMiddle2
                                {
                                    OFFSET -0.218749 -0.110176 0.008494
                                    CHANNELS 3 Zrotation Yrotation Xrotation
                                    JOINT RightHandMiddle3
                                    {
                                        OFFSET -0.100548 -0.106138 0.003039
                                        CHANNELS 3 Zrotation Yrotation Xrotation
                                        End Site
                                        {
                                            OFFSET -0.089556 -0.218197 0.000013
                                        }
                                    }
                                }
                            }
                            JOINT RightHandRing1
                            {
                                OFFSET -0.743819 -0.005785 -0.153669
                                CHANNELS 3 Zrotation Yrotation Xrotation
                                JOINT RightHandRing2
                                {
                                    OFFSET -0.311318 -0.166521 -0.009226
                                    CHANNELS 3 Zrotation Yrotation Xrotation
                                    JOINT RightHandRing3
                                    {
                                        OFFSET -0.087626 -0.103982 -0.010697
                                        CHANNELS 3 Zrotation Yrotation Xrotation
                                        End Site
                                        {
                                            OFFSET -0.034602 -0.114568 -0.009857
                                        }
                                    }
                                }
                            }
                            JOINT RightHandLittle1
                            {
                                OFFSET -0.689403 -0.053298 -0.308303
                                CHANNELS 3 Zrotation Yrotation Xrotation
                                JOINT RightHandLittle2
                                {
                                    OFFSET -0.175836 -0.082221 -0.019405
                                    CHANNELS 3 Zrotation Yrotation Xrotation
                                    JOINT RightHandLittle3
                                    {
                                        OFFSET -0.073712 -0.094386 -0.012381
                                        CHANNELS 3 Zrotation Yrotation Xrotation
                                        End Site
                                        {
                                            OFFSET -0.084335 -0.168836 -0.025896
                                        }
                                    }
                                }
                            }
                        }
                    }
                }
            }
        }
    }
    JOINT LeftHip
    {
        OFFSET 0.685143 0.673822 -0.044491
        CHANNELS 3 Zrotation Yrotation Xrotation
        JOINT LeftKnee
        {
            OFFSET 0.085364 -3.750208 0.017676
            CHANNELS 3 Zrotation Yrotation Xrotation
            JOINT LeftAnkle
            {
                OFFSET 0.094583 -4.155206 0.019585
                CHANNELS 3 Zrotation Yrotation Xrotation
                JOINT LeftToe
                {
                    OFFSET -0.000000 -0.395925 0.621478
                    CHANNELS 3 Zrotation Yrotation Xrotation
                    End Site
                    {
                        OFFSET -0.000000 -0.077878 0.321152
                    }
                }
            }
        }
    }
    JOINT RightHip
    {
        OFFSET -0.685143 0.673822 -0.044492
        CHANNELS 3 Zrotation Yrotation Xrotation
        JOINT RightKnee
        {
            OFFSET -0.085364 -3.750208 0.017677
            CHANNELS 3 Zrotation Yrotation Xrotation
            JOINT RightAnkle
            {
                OFFSET -0.094583 -4.155206 0.019585
                CHANNELS 3 Zrotation Yrotation Xrotation
                JOINT RightToe
                {
                    OFFSET -0.000000 -0.395925 0.621478
                    CHANNELS 3 Zrotation Yrotation Xrotation
                    End Site
                    {
                        OFFSET -0.000000 -0.077878 0.321152
                    }
                }
            }
        }
    }
}
MOTION
Frames: 6
Frame Time: 0.033333
2.288168 8.117254 -1.564451 -8.657247 15.722940 -1.707703 8.572070 -0.391450 7.012106 -1.062600 0.176045 -0.974452 -3.927872 -4.623363 2.901481 0.437819 -8.442374 7.645657 -3.725619 -5.384884 -0.005493 -23.276657 5.842487 -13.737608 0.587094 -57.922817 -1.068130 -18.833693 5.700172 19.408533 0.000013 0.000007 0.000002 0.000003 -0.000002 0.000000 0.000002 0.000002 -0.000003 9.995807 0.284161 0.088441 9.991533 0.388589 -0.106971 9.982719 0.494271 -0.278852 9.994292 0.293682 -0.144294 9.993515 0.335231 -0.106434 9.994046 0.325732 -0.089758 9.968257 0.336746 -0.693715 9.997565 0.086317 0.211271 9.994668 0.300236 -0.106264 9.892875 0.419603 -1.364228 9.997553 0.003577 -0.221337 9.996636 -0.015832 0.257606 9.842272 9.058586 -0.066171 62.293831 33.158993 60.656109 -1.231481 69.445854 -1.784202 26.547792 26.153681 -37.084053 -0.000024 0.000009 0.000003 -0.000002 0.000002 0.000001 -0.000003 -0.000001 0.000000 -0.000012 -0.000003 0.000012 -19.928759 0.084204 -1.707981 -19.953760 0.323366 -1.385430 -19.988235 -0.608167 -0.235445 -19.970795 0.010102 -1.087611 -19.969282 -0.021115 -1.109732 -19.932434 -0.788545 -1.318658 -19.964764 1.198946 -0.039324 -19.906256 1.850106 0.355057 -19.774231 -1.067322 -2.636312 -19.420242 3.434576 2.822104 -19.622988 3.021087 1.974098 16.915136 -1.269100 -31.729197 0.383988 0.924118 45.124409 0.492250 -3.665784 -23.757643 -0.000002 -0.000010 -0.000001 8.854774 3.070487 4.999211 -0.176188 -0.654623 30.129509 -14.497874 -30.559650 -22.954132 -0.000001 -0.000001 0.000001
2.455865 8.079338 -1.307294 -7.690872 26.918076 -2.961150 6.822208 -0.508871 6.088886 -1.888231 0.238798 -2.454296 -6.009542 -4.278953 4.284967 0.392664 -7.582410 10.253469 -3.552649 -7.012424 -0.003516 -23.665827 -0.823242 -13.913605 0.557350 -57.048260 -1.032808 -21.446609 18.028385 29.074633 0.000010 -0.000002 -0.000002 0.000003 -0.000000 0.000002 0.000002 -0.000000 0.000000 6.678698 -0.321130 -0.697539 9.991535 0.388588 -0.106970 9.982716 0.494268 -0.278853 7.109023 -0.989682 -0.969928 9.993519 0.335229 -0.106438 9.994050 0.325733 -0.089759 6.911625 -0.496996 -1.018921 9.997568 0.086311 0.211270 9.994666 0.300234 -0.106264 12.129048 1.651555 -0.177164 9.997555 0.003576 -0.221339 9.996635 -0.015831 0.257607 9.343267 9.094329 -0.085691 63.658325 27.768019 50.341709 -1.574783 72.697174 -2.147212 24.612816 28.883751 -38.198864 -0.000014 0.000007 -0.000008 -0.000003 0.000003 0.000002 0.000003 -0.000003 0.000000 3.789881 -0.973257 0.649114 -19.928757 0.084205 -1.707986 -19.953762 0.323367 -1.385429 -19.988218 -0.608174 -0.235456 -19.970791 0.010100 -1.087611 -19.969290 -0.021113 -1.109731 -21.619658 -0.842195 -3.246689 -19.964762 1.198944 -0.039323 -19.906250 1.850106 0.355052 -19.774220 -1.067326 -2.636322 -19.420233 3.434575 2.822105 -19.622990 3.021089 1.974093 13.608474 -1.296983 -33.066883 0.409828 0.949144 46.704956 0.651478 -2.944574 -23.228832 -0.000001 -0.000007 0.000001 9.531374 2.386719 0.737761 -0.279725 -0.807077 38.233410 -13.064026 -27.135681 -23.512386 0.000001 -0.000001 -0.000001
2.615945 8.028629 -1.027009 -7.022416 37.150627 -3.829230 4.343125 -0.663218 5.246645 -3.018338 0.270734 -4.243949 -8.101063 -3.592030 5.670382 0.305782 -5.918226 12.792438 -3.267925 -8.401146 0.000649 -23.311890 -6.852975 -14.155440 0.492206 -54.939213 -0.954073 -22.096804 27.766628 31.013649 0.000014 -0.000004 -0.000015 0.000000 0.000001 -0.000003 0.000005 -0.000000 0.000000 2.716175 -1.786689 -2.653766 9.991534 0.388586 -0.106971 9.982717 0.494273 -0.278855 1.987072 -4.226211 -3.117773 9.993523 0.335231 -0.106436 9.994043 0.325737 -0.089764 3.420305 -2.499472 -1.929306 9.997572 0.086317 0.211270 9.994669 0.300234 -0.106263 17.900017 4.849798 2.870246 9.997557 0.003574 -0.221338 9.996636 -0.015827 0.257609 9.530885 9.692119 -0.118915 65.591156 27.139545 43.605347 -0.973257 66.030487 -1.505055 22.085798 29.566633 -38.668896 -0.000014 0.000005 -0.000008 0.000000 0.000000 0.000003 -0.000005 -0.000000 0.000006 8.960292 -3.489711 2.207232 -19.928755 0.084207 -1.707983 -19.953760 0.323365 -1.385431 -19.988226 -0.608164 -0.235454 -19.970791 0.010102 -1.087609 -19.969290 -0.021112 -1.109728 -25.850056 -1.098573 -8.155445 -19.964767 1.198943 -0.039321 -19.906244 1.850107 0.355052 -19.774231 -1.067317 -2.636322 -19.420240 3.434575 2.822102 -19.622984 3.021089 1.974097 11.183436 -1.315755 -33.881382 0.442619 0.978998 48.653690 0.568723 -1.889566 -23.418545 0.000002 0.000003 -0.000006 8.915787 1.821114 -4.756075 -0.409414 -0.948806 46.682396 -10.366804 -22.873924 -23.068199 0.000003 0.000002 0.000005
2.759276 7.970442 -0.775783 -6.573414 46.628971 -4.380877 1.798006 -0.746120 5.193755 -3.954080 0.254611 -5.469547 -10.122890 -3.086560 6.618736 0.238966 -4.631435 14.366445 -2.806595 -9.689165 -0.000579 -22.127419 -12.844497 -14.334296 0.428832 -52.583462 -0.875341 -22.175026 37.763592 33.401505 0.000012 0.000006 -0.000003 0.000007 0.000001 0.000003 -0.000002 -0.000001 -0.000005 -1.477655 -3.767828 -5.300809 9.991534 0.388584 -0.106971 9.982719 0.494270 -0.278852 -4.347808 -8.622478 -6.058987 9.993516 0.335231 -0.106437 9.994054 0.325737 -0.089761 -0.150950 -5.194778 -3.196138 9.997565 0.086313 0.211270 9.994672 0.300231 -0.106264 25.800343 9.273544 7.005896 9.997552 0.003573 -0.221338 9.996636 -0.015828 0.257607 9.607694 10.402620 -0.146218 67.630447 28.060146 36.183151 -0.598374 58.241234 -1.081427 19.277365 30.254446 -38.834053 -0.000009 0.000021 -0.000016 0.000003 -0.000003 0.000000 -0.000002 -0.000003 0.000003 14.767561 -6.938886 4.316033 -19.928764 0.084207 -1.707983 -19.953754 0.323366 -1.385430 -19.988226 -0.608164 -0.235467 -19.970795 0.010100 -1.087613 -19.969292 -0.021110 -1.109727 -31.351969 -1.458391 -14.840739 -19.964764 1.198943 -0.039320 -19.906248 1.850107 0.355050 -19.774225 -1.067319 -2.636329 -19.420237 3.434574 2.822102 -19.622990 3.021089 1.974098 9.443391 -1.334972 -34.729874 0.476045 1.007418 50.581909 0.601994 -0.815482 -24.082094 0.000002 -0.000003 -0.000006 7.135167 1.395173 -9.763554 -0.529477 -1.049107 53.560932 -7.805344 -17.512236 -22.132807 0.000001 -0.000000 0.000006
2.879654 7.910162 -0.605510 -6.265368 55.561455 -4.684983 0.101260 -0.639760 6.191538 -3.977251 0.218995 -5.714453 -11.987562 -2.336644 6.673250 0.168341 -3.266153 14.462941 -1.966034 -10.704995 -0.014148 -19.514025 -18.127274 -14.707850 0.413890 -51.975693 -0.856390 -22.260601 47.955402 33.620838 0.000012 -0.000009 -0.000007 0.000008 0.000001 -0.000002 0.000003 0.000001 -0.000001 -5.484106 -5.920699 -8.162524 9.991534 0.388586 -0.106972 9.982720 0.494271 -0.278855 -10.891216 -13.390855 -9.276336 9.993519 0.335231 -0.106437 9.994042 0.325735 -0.089760 -3.458101 -8.108901 -4.592829 9.997565 0.086312 0.211270 9.994670 0.300231 -0.106264 34.422104 14.162076 11.473555 9.997552 0.003572 -0.221336 9.996636 -0.015828 0.257607 9.354249 11.065349 -0.143280 68.674797 29.463909 29.287804 -0.459504 53.765263 -0.913736 16.063879 30.921486 -39.049938 -0.000012 0.000019 -0.000008 0.000003 0.000001 0.000002 -0.000002 -0.000003 -0.000003 20.481951 -10.704876 6.615590 -19.928759 0.084206 -1.707984 -19.953758 0.323366 -1.385429 -19.988220 -0.608158 -0.235452 -19.970795 0.010101 -1.087613 -19.969290 -0.021114 -1.109729 -36.983936 -1.787070 -22.091763 -19.964771 1.198948 -0.039320 -19.906252 1.850109 0.355052 -19.774221 -1.067311 -2.636313 -19.420240 3.434574 2.822104 -19.622988 3.021089 1.974096 7.852274 -1.360386 -35.964100 0.506409 1.031626 52.288151 0.994511 -0.129434 -24.899296 -0.000001 -0.000007 0.000004 4.702258 1.162675 -13.201209 -0.612014 -1.105285 57.949253 -5.349779 -12.684803 -21.541842 -0.000002 -0.000007 0.000003
2.972941 7.853325 -0.547025 -6.019771 64.156448 -4.810404 0.046105 -0.350755 7.992688 -2.488827 0.151767 -5.087768 -13.678427 -1.715025 5.974066 0.131086 -2.544416 13.244195 -1.097983 -11.234643 -0.031092 -16.940310 -22.427391 -16.037909 0.411391 -51.871731 -0.853197 -23.173347 58.064697 31.726925 0.000015 0.000002 -0.000005 -0.000002 -0.000003 0.000001 -0.000004 0.000005 0.000002 -8.878763 -7.898204 -10.770737 9.991536 0.388586 -0.106974 9.982718 0.494271 -0.278853 -16.679054 -17.751677 -12.252561 9.993522 0.335232 -0.106440 9.994047 0.325732 -0.089757 -6.179727 -10.770257 -5.889890 9.997572 0.086313 0.211270 9.994671 0.300229 -0.106265 42.351421 18.713055 15.541954 9.997555 0.003574 -0.221336 9.996636 -0.015824 0.257600 8.688027 11.816697 -0.100648 66.588997 30.552216 21.516565 -0.441197 53.069237 -0.890874 12.624079 31.494591 -39.505646 -0.000012 0.000010 -0.000007 0.000003 0.000002 0.000000 0.000000 -0.000006 -0.000002 25.397732 -14.166885 8.737421 -19.928749 0.084206 -1.707984 -19.953764 0.323367 -1.385430 -19.988220 -0.608164 -0.235456 -19.970797 0.010100 -1.087611 -19.969282 -0.021114 -1.109728 -41.835274 -1.977651 -28.706415 -19.964764 1.198945 -0.039321 -19.906250 1.850106 0.355057 -19.774233 -1.067315 -2.636318 -19.420237 3.434575 2.822102 -19.622988 3.021087 1.974097 5.847539 -1.391262 -37.571163 0.531399 1.050469 53.663582 1.675832 0.299698 -24.915377 -0.000001 -0.000007 -0.000001 -2.334488 1.218063 -17.004324 -0.652941 -1.129872 60.047405 -0.694503 -5.368662 -29.756197 -0.000000 -0.000000 -0.000000
